{"accessors":[{"name":"Icosphere.002-Mesh_positions","componentType":5126,"count":452,"min":[-1.0448349714279175,-0.12627199292182922,-1.0407589673995972],"max":[1.0333620309829712,0.1193929985165596,1.0375020503997803],"type":"VEC3","bufferView":0,"byteOffset":0},{"name":"Icosphere.002-Mesh_normals","componentType":5126,"count":452,"min":[-0.9781000018119812,-0.9577000141143799,-0.9944999814033508],"max":[1,0.9577000141143799,0.9944999814033508],"type":"VEC3","bufferView":0,"byteOffset":5424},{"name":"Icosphere.002-Mesh_0_indices","componentType":5123,"count":696,"min":[0],"max":[451],"type":"SCALAR","bufferView":1,"byteOffset":0}],"asset":{"generator":"obj2gltf","version":"2.0"},"buffers":[{"name":"input","byteLength":12240,"uri":"data:application/octet-stream;base64,"}],"bufferViews":[{"name":"bufferView_0","buffer":0,"byteLength":10848,"byteOffset":0,"byteStride":12,"target":34962},{"name":"bufferView_1","buffer":0,"byteLength":1392,"byteOffset":10848,"target":34963}],"materials":[{"name":"Material","pbrMetallicRoughness":{"baseColorFactor":[0.5,0.5,0.5,1],"metallicFactor":0,"roughnessFactor":1},"emissiveFactor":[0,0,0],"alphaMode":"OPAQUE","doubleSided":false}],"meshes":[{"name":"Icosphere.002-Mesh","primitives":[{"attributes":{"POSITION":0,"NORMAL":1},"indices":2,"material":0,"mode":4}]}],"nodes":[{"name":"Icosphere.002","mesh":0}],"scene":0,"scenes":[{"nodes":[0]}]}
